<?xml version="1.0" encoding="UTF-8" standalone="no"?>
<svg width="118px" height="25px" viewBox="0 0 118 25" version="1.1" xmlns="http://www.w3.org/2000/svg" xmlns:xlink="http://www.w3.org/1999/xlink" xmlns:sketch="http://www.bohemiancoding.com/sketch/ns">
    <!-- Generator: Sketch 3.5.2 (25235) - http://www.bohemiancoding.com/sketch -->
    <title>Canon</title>
    <desc>Created with Sketch.</desc>
    <defs></defs>
    <g id="Desktop" stroke="none" stroke-width="1" fill="none" fill-rule="evenodd" sketch:type="MSPage">
        <g id="2.1-Register---See-password" sketch:type="MSArtboardGroup" transform="translate(-240.000000, -18.000000)" fill="#CC0000">
            <g id="Header" sketch:type="MSLayerGroup">
                <g id="Canon" transform="translate(240.000000, 18.000000)" sketch:type="MSShapeGroup">
                    <path d="M19.5607692,22.2512295 C14.0956364,22.2512295 9.66486014,17.8504098 9.66486014,12.4213115 C9.66486014,6.99221311 14.0956364,2.59098361 19.5607692,2.59098361 C21.4875524,2.59098361 23.2851958,3.13770492 24.8055804,4.08360656 L19.5607692,12.4213115 L29.4348112,6.75819672 C28.3629091,5.05901639 26.8235455,3.5954918 24.9586503,2.4852459 C22.5953497,1.07868852 19.3029021,0.208196721 15.6622308,0.208196721 C10.4656923,0.208196721 5.9099021,2.07991803 3.36753846,4.88893443 C1.48861538,6.96434426 0.368440559,9.57909836 0.368440559,12.4213115 C0.368440559,15.2631148 1.48861538,17.8782787 3.36753846,19.9536885 C5.91609091,22.7688525 10.4042168,24.6344262 15.5124615,24.6344262 C20.6207063,24.6344262 25.1071818,22.7672131 27.6577972,19.9536885 C27.7972517,19.7995902 27.9321678,19.642623 28.0633706,19.4831967 L27.6763636,18.0483607 C25.8873846,20.5893443 22.9192308,22.2512295 19.5607692,22.2512295" id="Fill-3"></path>
                    <path d="M39.652951,21.6553279 C37.6655175,21.6553279 36.0543636,20.054918 36.0543636,18.0807377 C36.0543636,16.1069672 37.6655175,14.5065574 39.652951,14.5065574 C41.6403846,14.5065574 43.2515385,16.1069672 43.2515385,18.0807377 C43.2515385,20.054918 41.6403846,21.6553279 39.652951,21.6553279 L39.652951,21.6553279 Z M52.292979,24.0389344 L48.1506014,8.68360656 C47.4834476,6.2045082 45.208028,4.37827869 42.5018671,4.37827869 C41.7992308,4.37827869 41.1254755,4.50163934 40.5016434,4.72745902 L31.5798531,7.95286885 L40.7566224,7.95286885 L42.3252797,13.7684426 C40.8032448,12.4651639 38.8215874,11.6762295 36.6542657,11.6762295 C32.3480909,11.6762295 28.8571888,14.5438525 28.8571888,18.0807377 C28.8571888,21.6180328 32.3480909,24.4852459 36.6542657,24.4852459 C39.7523846,24.4852459 42.4960909,22.9790984 44.1852238,20.6639344 L45.0953916,24.0389344 L52.292979,24.0389344 L52.292979,24.0389344 Z" id="Fill-4"></path>
                    <path d="M69.1913217,4.37827869 C68.6475315,4.37827869 68.1326224,4.49877049 67.6705245,4.71311475 L61.9446364,7.36516393 C61.6628392,5.67090164 60.1816503,4.37827869 58.3955594,4.37827869 C57.8517692,4.37827869 57.3368601,4.49877049 56.8747622,4.71311475 L49.8805804,7.95286885 L54.796972,7.95286885 L54.796972,24.0389344 L61.9941469,24.0389344 L61.9937343,9.74016393 C61.9937343,8.75327869 62.7995175,7.95286885 63.7934406,7.95286885 C64.786951,7.95286885 65.5927343,8.75327869 65.5927343,9.74016393 L65.5927343,24.0389344 L72.7894965,24.0389344 L72.7894965,7.95286885 C72.7894965,5.97868852 71.1787552,4.37827869 69.1913217,4.37827869" id="Fill-5"></path>
                    <path d="M114.323434,4.37827869 C113.780056,4.37827869 113.264734,4.49877049 112.802636,4.71311475 L107.077161,7.36516393 C106.794951,5.67090164 105.31335,4.37827869 103.527671,4.37827869 C102.984294,4.37827869 102.468972,4.49877049 102.006874,4.71311475 L95.0126923,7.95286885 L99.9294965,7.95286885 L99.9294965,24.0389344 L107.126259,24.0389344 L107.126259,9.74016393 C107.126259,8.75327869 107.931629,7.95286885 108.925552,7.95286885 C109.919476,7.95286885 110.724846,8.75327869 110.724846,9.74016393 L110.725259,24.0389344 L117.922021,24.0389344 L117.922021,7.95286885 C117.922021,5.97868852 116.31128,4.37827869 114.323434,4.37827869" id="Fill-6"></path>
                    <path d="M86.4106573,7.4545082 C86.0892517,6.26229508 84.8556154,5.55491803 83.6562238,5.87418033 C82.4564196,6.19385246 81.7438811,7.41885246 82.0661119,8.61065574 L85.5586643,21.5586066 C85.8800699,22.7508197 87.1132937,23.4577869 88.3130979,23.1381148 C89.5133147,22.8188525 90.225028,21.5942623 89.9036224,20.4020492 L86.4106573,7.4545082 L86.4106573,7.4545082 Z M96.1807273,14.5065574 C96.1807273,20.0995902 91.6158601,24.6344262 85.9848671,24.6344262 C80.3534615,24.6344262 75.789007,20.0995902 75.789007,14.5065574 C75.789007,8.91270492 80.3534615,4.37827869 85.9848671,4.37827869 C91.6158601,4.37827869 96.1807273,8.91270492 96.1807273,14.5065574 L96.1807273,14.5065574 Z" id="Fill-7"></path>
                </g>
            </g>
        </g>
    </g>
</svg>