<svg width="201" height="19" viewBox="0 0 201 19" version="1.1" xmlns="http://www.w3.org/2000/svg" xmlns:xlink="http://www.w3.org/1999/xlink" xml:space="preserve" xmlns:serif="http://www.serif.com/" style="fill-rule:evenodd;clip-rule:evenodd;stroke-linejoin:round;stroke-miterlimit:1.41421;">
    <g transform="matrix(1,0,0,1,-197,-72)">
        <path d="M304.518,89.098L309.677,89.098L310.119,87.733L304.963,87.733" style="fill:currentColor;fill-rule:nonzero;"/>
        <path d="M344.968,89.098L350.129,89.098L350.571,87.733L345.411,87.733" style="fill:currentColor;fill-rule:nonzero;"/>
        <path d="M231.366,83.87L232.679,83.87L233.631,89.098L237.248,89.098L234.448,73.854L232.036,73.854L226.997,82.591L227.02,82.591L223.048,82.591L222.605,83.87L226.26,83.87L223.243,89.098L225.193,89.098L228.215,83.875L228.208,83.87L231.366,83.87L231.134,82.591L228.951,82.591L228.959,82.588L231.611,78.003L232.446,82.591L231.134,82.591L231.366,83.87Z" style="fill:currentColor;fill-rule:nonzero;"/>
        <path d="M286.934,82.221L285.197,87.681L291.366,87.681L290.941,89.098L280.942,89.098L283.118,82.221L283.105,82.221L280.872,82.221L281.299,80.944L283.53,80.944L283.521,80.941L285.765,73.854L295.761,73.854L295.371,75.202L289.167,75.202L287.341,80.944L291.366,80.944L290.941,82.221L286.934,82.221Z" style="fill:currentColor;fill-rule:nonzero;"/>
        <path d="M304.968,87.736L309.357,73.854L305.67,73.854L300.849,89.098L304.519,89.098" style="fill:currentColor;fill-rule:nonzero;"/>
        <path d="M345.418,87.736L349.81,73.854L346.123,73.854L341.299,89.098L344.969,89.098" style="fill:currentColor;fill-rule:nonzero;"/>
        <path d="M214.079,73.853L211.79,81.085L211.809,81.085L206.191,81.085L206.189,81.085L208.477,73.853L204.861,73.853L202.572,81.085L198.887,81.085L198.479,82.431L202.149,82.431L200.039,89.097L203.655,89.097L205.765,82.431L211.365,82.431L209.259,89.097L212.875,89.097L217.693,73.853L214.079,73.853Z" style="fill:currentColor;fill-rule:nonzero;"/>
        <path d="M366.368,83.87L368.017,83.87L368.971,89.098L372.586,89.098L369.786,73.854L367.373,73.854L362.338,82.591L362.359,82.591L358.39,82.591L357.943,83.87L361.597,83.87L358.584,89.098L360.533,89.098L363.554,83.875L363.546,83.87L366.368,83.87L366.368,82.591L364.29,82.591L364.298,82.588L366.95,78.003L367.785,82.591L367.782,82.591L366.368,82.591L366.368,83.87Z" style="fill:currentColor;fill-rule:nonzero;"/>
        <path d="M198.425,82.431L198.852,81.085" style="fill-rule:nonzero;"/>
        <path d="M248.713,81.869C243.65,78.516 248.806,70.872 255.958,74.836L255.192,76.113C250.76,73.173 247.138,77.308 250.801,78.927C251.867,79.481 252.676,79.736 254.041,80.72C255.415,81.704 255.873,83.061 255.49,84.723C254.383,89.528 248.374,90.647 244.751,87.491L245.732,86.217C250.503,90.219 255.021,85.747 251.996,83.745C250.757,82.922 249.566,82.465 248.713,81.869Z" style="fill:currentColor;fill-rule:nonzero;"/>
        <path d="M266.122,81.869C261.062,78.516 266.214,70.872 273.366,74.836L272.601,76.113C268.167,73.173 264.547,77.308 268.211,78.927C269.278,79.481 270.085,79.736 271.45,80.72C272.824,81.704 273.281,83.061 272.899,84.723C271.79,89.528 265.782,90.647 262.16,87.491L263.14,86.217C267.913,90.219 272.43,85.747 269.405,83.745C268.166,82.922 266.974,82.465 266.122,81.869Z" style="fill:currentColor;fill-rule:nonzero;"/>
        <path d="M324.907,80.859L325.566,80.859L325.158,82.253L324.48,82.253L324.401,82.253L322.598,87.747L318.815,87.697L320.636,82.257L320.565,82.257L318.273,82.257L318.735,80.873L319.64,80.873L321.1,80.876L323.449,73.854C323.449,73.854 323.946,73.857 328.415,73.854C334.54,73.846 335.341,79.549 329.26,81.408C334.54,82.634 332.133,88.972 325.15,89.098L318.344,89.098L318.815,87.697L323.905,87.747L325.188,87.747C327.949,87.703 330.821,82.295 326.555,82.253L325.158,82.253L325.566,80.859L326.766,80.859C330.611,80.775 331.455,75.114 327.562,75.201L326.711,75.201L324.907,80.859Z" style="fill:currentColor;fill-rule:nonzero;"/>
        <path d="M386.5,89.098L386.112,89.098L386.112,87.681L386.358,87.681C393.095,87.681 395.789,75.272 390.118,75.272L388.91,75.272L384.657,87.681L386.112,87.681L386.112,89.098L380.616,89.098L385.58,73.854L390.118,73.854C400.626,73.72 398.387,88.676 386.5,89.098Z" style="fill:currentColor;fill-rule:nonzero;"/>
    </g>
</svg>
