<svg width="195" height="195" viewBox="0 0 195 195" fill="none" xmlns="http://www.w3.org/2000/svg">
<path d="M97.5 0C151.348 0 195 43.6522 195 97.5C195 151.348 151.348 195 97.5 195C43.6522 195 0 151.348 0 97.5C0 43.6522 43.6522 0 97.5 0ZM68.5967 56.4365C50.2 55.7209 45.0967 81.9395 43.9688 86.3975C43.8978 86.7191 43.8711 86.8174 43.8711 86.8174C38.2163 86.0339 35.0185 84.8861 34.9902 84.876L33.6904 88.4131C37.5085 90.2219 43.0517 90.8167 43.0947 90.8213C41.9926 97.8444 36.5381 111.146 36.5381 111.146C36.5381 111.146 31.503 109.477 25.248 109.477C17.1393 109.477 14.3525 113.336 14.1533 115.758C13.6153 122.016 21.4864 124.955 26.9814 124.955C37.7072 124.955 43.2793 119.167 43.2793 119.167C43.3789 119.205 73.4982 130.561 104.911 130.561C146.097 130.561 180.826 119.594 180.826 119.594L179.692 115.832C179.692 115.832 154.452 124.625 106.296 124.031C73.0819 123.625 47.7578 113.816 47.7578 113.816C47.7578 113.816 48.5772 112.22 49.1152 111.145C52.4442 104.356 56.3701 90.584 56.3701 90.584C56.426 90.5684 79.1982 84.2005 79.1982 66.0938C79.1981 60.3579 73.8636 56.6615 68.5967 56.4365ZM19.6641 117.027C19.6641 114.531 22.7269 114.138 24.6719 114.276C29.357 114.53 33.3862 116.125 33.4219 116.14C33.4219 116.14 28.6489 119.96 24.6719 120.084C21.6393 120.172 19.6645 118.156 19.6641 117.027ZM156.872 87.1182C145.878 87.1182 139.852 96.5969 139.59 102.17C139.544 103.353 139.53 103.543 139.529 103.551C139.274 103.846 135.387 108.269 130.618 108.27C126.802 108.27 126.167 105.073 126.167 103.031C126.167 100.813 128.011 92.05 133.214 92.0498C136.037 92.0498 137.769 94.4975 137.779 94.5127L139.307 89.4971C139.281 89.4775 136.866 87.6204 131.961 87.6064C121.333 87.5925 114.075 95.5738 113.819 102.762C113.772 103.832 113.732 104.186 113.745 104.253C113.392 104.68 110.772 107.692 107.372 107.692C105.048 107.692 105.048 105.879 105.048 105.072C105.048 103.987 109.643 88.3408 109.643 88.3408L97.6309 88.5234L93.3447 103.706C93.3019 103.737 86.7316 108.475 77.5566 109.132C72.8109 109.457 71.1748 106.581 71.1748 104.889V104.187C71.1748 104.187 73.1057 104.312 74.5566 104.312C75.6846 104.312 89.7129 103.341 89.7129 94.7549C89.7128 89.8511 84.8162 87.9806 78.6055 87.9805C67.1445 87.9805 59.1055 95.0914 59.1055 103.525C59.1057 111.224 65.6891 114.533 74.1738 114.533C83.7839 114.533 93.1653 108.652 93.1787 108.644C93.1787 108.644 93.703 114.533 101.298 114.533C109.132 114.533 115.264 108.647 115.268 108.644C115.268 108.644 118.681 114.307 126.477 114.308C134.408 114.308 140.508 107.917 140.558 107.865C140.567 107.892 142.708 113.942 150.581 113.942C156.709 113.942 160.015 109.945 160.054 109.898C160.07 109.935 161.839 113.942 167.189 113.942C173.723 113.942 178.635 109.348 178.664 109.32L177.522 105.553C177.522 105.553 174.982 107.383 173.179 107.383C171.812 107.383 171.064 106.241 171.063 104.988C171.063 102.179 175.451 88.3628 175.477 88.2812L164.678 88.4248L164.114 90.3027C164.103 90.2806 162.519 87.1182 156.872 87.1182ZM158.994 91.7207C161.251 91.7208 162.464 93.6249 162.464 95.0488C162.463 95.3448 161.1 108.27 154.64 108.27C151.681 108.269 151.681 105.019 151.681 104.075C151.681 101.593 153.629 91.7207 158.994 91.7207ZM79.0977 91.4717C80.7137 91.5687 81.8021 92.7252 81.7451 93.9072C81.4795 101.519 72.1171 100.359 72.0742 100.354C72.0873 100.276 73.6324 91.1375 79.0977 91.4717ZM69.4717 61.6299C73.0057 61.6299 74.1778 64.4981 73.8818 67.0781C72.1645 82.1969 57.1718 85.6755 57.124 85.6865C57.1429 85.5653 60.8807 61.6305 69.4717 61.6299ZM106.014 74.1016C102.188 74.1017 99.3672 75.6582 99.3672 79.248C99.3672 82.8729 102.629 83.8701 106.014 83.8701C109.42 83.8701 112.521 82.2671 112.521 78.5723C112.521 74.8643 108.785 74.1016 106.014 74.1016Z" fill="currentColor"/>
</svg>
