<svg width="375" height="104" viewBox="0 0 375 104" fill="none" xmlns="http://www.w3.org/2000/svg">
<path d="M134.016 100.725L155.614 3.41L182.231 3.41299L170.628 55.172L192.127 29.219H221.888L195.182 61.665L206.192 100.726H179.635L168.659 63.717L159.966 100.726H134.016V100.725ZM37.907 51.81L56.661 100.724H82.17L104.153 3.409L77.88 3.41199L66.759 52.913L48.355 3.38098H21.718L0 100.725H26.788C29.829 85.128 33.899 68.655 37.907 51.81ZM121.27 100.725L137.205 29.258H111.061L95.129 100.725H121.27ZM112.401 13.601C112.401 15.844 112.928 23.773 127.236 23.773C139.121 23.773 143.704 16.157 143.704 10.471C143.704 6.64298 140.575 0 128.863 0C118.075 0.001 112.401 7.21398 112.401 13.601ZM363.854 28.294C352.676 24.965 338.824 30.488 331.987 39.951C332.651 37.018 333.361 33.607 334.164 29.679H307.635L292.11 100.725H318.511L327.318 60.429C328.937 53.013 334.9 49.844 340.181 51.209C342.458 51.825 345.59 53.546 344.553 59.725L335.592 100.724H361.682L373.641 46.007C376.175 33.948 366.271 29.018 363.854 28.294ZM275.081 94.28C286.542 84.908 292.21 69.062 292.028 54.153C291.834 39.823 279.698 26.23 258.585 26.23C218.338 26.23 212.484 57.601 211.321 63.327C208.374 77.811 211.652 96.611 230.557 101.593C243.031 104.886 262.537 104.529 275.081 94.28ZM245.556 52.859C247.448 47.646 252.599 46.492 254.927 46.469C260.696 46.42 262.275 49.841 261.773 53.064C260.385 61.999 257.29 73.337 256.147 76.951C256.133 76.999 256.124 77.045 256.11 77.085C254.853 81.032 251.134 83.33 246.756 83.33C242.324 83.33 239.645 80.543 240.027 76.991C240.677 70.995 244.473 55.838 245.556 52.859Z" fill="currentColor"/>
</svg>
