<?xml version="1.0" encoding="UTF-8" ?>
<!DOCTYPE svg PUBLIC "-//W3C//DTD SVG 1.1//EN" "http://www.w3.org/Graphics/SVG/1.1/DTD/svg11.dtd">
<svg width="529.5pt" height="106.5pt" viewBox="0 0 2560 513" version="1.1" xmlns="http://www.w3.org/2000/svg">
<g id="#ff0013ff">
<path fill="#ff0013" opacity="1.00" d=" M 11.94 8.26 C 92.62 8.28 173.31 8.26 253.99 8.27 C 278.70 7.97 303.83 9.06 327.57 16.49 C 343.10 21.32 357.90 29.04 369.87 40.14 C 382.24 51.49 391.27 66.15 397.11 81.82 C 405.92 105.45 408.42 130.90 408.54 155.96 C 408.57 181.30 408.54 206.65 408.55 231.99 C 408.44 246.68 409.04 261.42 407.36 276.05 C 405.52 292.71 401.25 309.30 393.12 324.04 C 386.12 336.83 376.12 347.95 364.12 356.24 C 344.41 369.94 320.59 376.24 297.01 378.97 C 278.41 381.19 259.66 380.67 240.97 380.73 C 212.30 380.74 183.63 380.73 154.95 380.74 C 154.95 420.80 154.96 460.87 154.95 500.93 C 107.27 500.93 59.58 500.94 11.90 500.93 C 11.92 336.71 11.85 172.48 11.94 8.26 M 155.40 97.33 C 155.36 159.20 155.47 221.08 155.35 282.95 C 173.54 283.24 191.75 282.98 209.95 283.08 C 221.50 283.14 233.47 281.44 243.60 275.58 C 252.57 270.51 259.25 261.83 262.41 252.08 C 265.34 243.69 265.53 234.71 265.38 225.93 C 265.34 197.62 265.35 169.30 265.29 140.99 C 265.31 129.56 261.74 117.66 253.44 109.50 C 245.01 100.99 232.77 97.34 221.01 97.34 C 199.14 97.32 177.27 97.33 155.40 97.33 Z" />
<path fill="#ff0013" opacity="1.00" d=" M 454.97 8.33 C 568.63 8.46 682.30 8.39 795.96 8.36 C 796.12 38.98 795.99 69.60 796.03 100.21 C 728.69 100.22 661.35 100.21 594.01 100.21 C 594.02 134.31 593.99 168.40 594.02 202.50 C 651.13 202.54 708.23 202.35 765.33 202.59 C 765.08 233.37 765.29 264.15 765.22 294.93 C 708.15 294.95 651.08 294.93 594.02 294.94 C 594.01 333.23 594.01 371.52 594.01 409.80 C 661.24 409.83 728.47 409.76 795.70 409.83 C 795.70 440.21 795.65 470.58 795.72 500.96 C 682.10 501.15 568.47 500.98 454.84 501.04 C 454.84 391.35 454.84 281.66 454.84 171.97 C 454.93 117.42 454.67 62.87 454.97 8.33 Z" />
<path fill="#ff0013" opacity="1.00" d=" M 854.94 8.20 C 900.20 8.22 945.46 8.30 990.73 8.27 C 1030.05 102.61 1069.37 196.95 1108.69 291.28 C 1109.80 293.84 1110.83 296.43 1111.73 299.07 C 1112.26 274.07 1111.81 249.03 1111.96 224.02 C 1111.97 152.10 1111.92 80.18 1111.98 8.26 C 1152.91 8.31 1193.84 8.21 1234.76 8.21 C 1234.76 172.49 1234.77 336.78 1234.76 501.07 C 1187.47 501.07 1140.19 501.07 1092.91 501.06 C 1056.07 411.88 1019.19 322.71 982.36 233.52 C 982.01 232.79 981.30 231.31 980.95 230.58 C 980.78 320.74 980.93 410.90 980.87 501.06 C 938.90 501.22 896.92 501.09 854.94 501.13 C 854.93 336.82 854.94 172.51 854.94 8.20 Z" />
<path fill="#ff0013" opacity="1.00" d=" M 1278.17 8.22 C 1421.25 8.21 1564.32 8.20 1707.39 8.22 C 1707.36 39.84 1707.39 71.46 1707.38 103.08 C 1659.41 103.10 1611.44 103.06 1563.47 103.10 C 1563.49 235.75 1563.46 368.39 1563.48 501.03 C 1515.46 500.96 1467.43 501.21 1419.42 500.91 C 1419.59 368.31 1419.42 235.70 1419.50 103.10 C 1372.39 103.06 1325.28 103.10 1278.17 103.08 C 1278.16 71.46 1278.17 39.84 1278.17 8.22 Z" />
<path fill="#ff0013" opacity="1.00" d=" M 1802.51 8.34 C 1842.83 8.41 1883.15 8.17 1923.46 8.46 C 1978.10 172.68 2033.05 336.80 2087.88 500.97 C 2043.00 501.03 1998.12 501.01 1953.24 500.98 C 1945.57 474.69 1937.83 448.42 1930.13 422.14 C 1886.16 422.13 1842.19 422.13 1798.22 422.14 C 1790.89 448.47 1783.58 474.81 1776.23 501.14 C 1733.10 501.14 1689.97 500.99 1646.84 501.00 C 1698.74 336.78 1750.61 172.55 1802.51 8.34 M 1863.73 162.88 C 1849.34 221.00 1834.91 279.11 1820.42 337.21 C 1849.27 337.21 1878.12 337.19 1906.97 337.22 C 1892.54 279.11 1878.28 220.96 1863.73 162.88 Z" />
<path fill="#ff0013" opacity="1.00" d=" M 2094.25 8.17 C 2144.81 8.23 2195.38 8.18 2245.95 8.20 C 2269.23 58.41 2292.67 108.55 2315.82 158.82 C 2337.77 108.69 2359.35 58.39 2381.18 8.20 C 2427.99 8.42 2474.82 8.08 2521.63 8.58 C 2480.35 87.67 2439.51 167.00 2398.40 246.20 C 2448.69 331.13 2498.92 416.09 2549.25 501.00 C 2499.47 501.05 2449.69 500.90 2399.92 501.07 C 2373.52 446.80 2347.12 392.54 2320.72 338.27 C 2319.30 335.44 2318.06 332.52 2316.43 329.81 C 2301.89 364.10 2287.20 398.32 2272.60 432.59 C 2262.76 455.42 2253.24 478.40 2243.20 501.14 C 2191.86 500.95 2140.52 501.15 2089.18 501.04 C 2135.83 414.96 2182.48 328.87 2229.17 242.81 C 2184.23 164.58 2139.19 86.41 2094.25 8.17 Z" />
</g>
<g id="#ffffffff">
</g>
</svg>
