<svg width="1000" height="333" viewBox="0 0 1000 333" fill="none" xmlns="http://www.w3.org/2000/svg">
<path d="M475.407 24.6488C751.219 -23.4146 985.802 0.963258 999.38 79.0511C1006.62 120.524 950.028 168.819 854.028 212.185C859.58 208.129 863.322 202.111 864.099 193.634C864.407 190.185 864.451 188.757 864.473 186.824V159.073H827.813V174.167H838.425V189.174C838.436 190.481 838.381 191.92 838.195 193.107C837.711 195.864 835.096 200.599 827.604 200.599C820.123 200.599 817.519 195.875 817.069 193.107C816.86 191.92 816.783 190.481 816.805 189.174V141.891C816.805 140.221 816.926 138.375 817.245 137.013C817.794 134.442 820.002 129.477 827.538 129.477C835.415 129.477 837.404 134.728 837.843 137.013C838.149 138.475 838.205 140.924 838.184 140.946V146.736H864.253V143.285C864.255 143.242 864.361 139.75 864.023 136.475C862.122 117.118 846.071 110.932 827.736 110.932C809.378 110.932 793.712 117.151 791.416 136.475C791.219 138.2 790.989 141.451 790.989 143.285L790.966 186.824C790.999 188.757 791.043 190.185 791.339 193.634C793.086 212.442 809.378 219.155 827.736 219.155C832.62 219.155 837.362 218.677 841.722 217.621C758.306 253.697 647.785 285.947 524.646 307.394C248.844 355.435 14.2171 331.057 0.616577 252.958C-6.74486 210.664 52.2624 161.293 151.734 117.285C146.73 120.917 143.284 126.16 142.105 133.388C141.358 138.035 141.248 142.176 142.335 147.362C146.851 168.488 183.577 174.607 188.894 187.988C189.905 190.492 189.597 193.711 189.124 195.656C188.256 199.094 185.927 202.599 179.05 202.599C172.569 202.599 168.636 198.886 168.636 193.206V183.198H140.908L140.885 191.206C140.885 214.255 159.034 221.209 178.479 221.209C197.177 221.209 212.579 214.815 215.029 197.589C216.281 188.658 215.348 182.813 214.919 180.605C210.558 158.963 171.317 152.503 168.394 140.397C167.9 138.32 168.043 136.123 168.285 134.948C168.999 131.652 171.261 128.016 177.732 128.016C183.774 128.016 187.345 131.751 187.345 137.398V143.781H213.128V136.519C213.128 113.998 192.914 110.482 178.27 110.482C173.197 110.482 168.381 110.945 164.007 111.967C246.741 76.8832 355.054 45.608 475.407 24.6488ZM514.549 111.053C496.368 111.053 481.459 117.052 478.768 133.761C478.021 138.342 477.945 142.407 479.01 147.571C483.46 168.477 519.823 174.552 525.085 187.801C526.107 190.284 525.777 193.414 525.316 195.359C524.47 198.786 522.163 202.237 515.329 202.237C508.936 202.237 505.036 198.523 505.036 192.975L505.014 183.055H477.571L477.537 190.953C477.537 213.771 495.522 220.66 514.769 220.66C533.269 220.66 548.529 214.354 550.935 197.282C552.187 188.417 551.298 182.649 550.847 180.485C546.508 159.04 507.662 152.646 504.772 140.66C504.277 138.595 504.421 136.419 504.673 135.31C505.409 131.992 507.628 128.444 514.033 128.444C520.02 128.444 523.514 132.091 523.514 137.694V144.011H549.1V136.827C549.1 114.547 529.051 111.053 514.549 111.053ZM575.598 187.889C575.543 189.79 575.73 193.7 575.818 194.678C577.63 213.98 592.901 220.242 611.917 220.243C630.912 220.243 646.172 213.98 648.006 194.678C648.094 193.7 648.281 189.79 648.226 187.889V113.723H622.079V190.229C622.101 191.569 622.047 193.063 621.838 194.184C621.344 196.722 619.102 201.687 611.929 201.687C604.701 201.687 602.525 196.722 601.964 194.184C601.766 193.074 601.723 191.569 601.723 190.229V113.723H575.598V187.889ZM232.431 217.156H260.346L274.507 123.346H275.089L288.866 217.156H316.671L297.588 113.767H251.601L232.431 217.156ZM337.291 217.156H363.185L363.833 124.203H364.394L381.686 217.156H407.92L425.201 124.203H425.74L426.42 217.156H452.259L450.018 113.767H407.854L395.078 192.799H394.528L381.762 113.767H339.577L337.291 217.156ZM677.064 216.078H702.496L701.079 132.114H701.628L727.171 216.078H763.974V113.767H738.376L739.793 194.942H739.222L715.46 113.767H677.064V216.078Z" fill="currentColor"/>
</svg>
