<svg width="512" height="512" viewBox="0 0 512 512" fill="none" xmlns="http://www.w3.org/2000/svg">
<path d="M256 0C340.875 0 410.33 5.37815 458.634 53.4961C507.036 101.732 512 171.255 512 256.249C512 341.148 507.089 410.608 458.795 458.862C410.514 507.117 340.974 512.001 256 512.001C171.027 512.001 101.475 507.117 53.1943 458.862C4.89734 410.617 1.17353e-06 341.148 0 256.249C0 171.364 4.89713 101.916 53.1738 53.6885C101.458 5.44048 171.018 0 256 0ZM104.69 158.605C102.916 158.605 101.489 160.023 101.489 161.766V351.152C101.489 352.867 102.917 354.291 104.69 354.291H146.206C147.981 354.291 149.443 352.867 149.443 351.152V202.507C149.443 200.79 150.887 199.371 152.651 199.371H227.861C242.647 199.734 256.866 201.484 264.486 209.125C273.339 218.007 274.326 235.65 274.37 252.817V351.151C274.37 352.866 275.822 354.29 277.599 354.29H319.089C320.862 354.29 322.307 352.866 322.308 351.151V254.48C322.242 223.744 320.523 192.091 304.652 176.194C288.509 160.04 255.779 158.605 224.476 158.605H104.69ZM190.179 234.032C188.387 234.032 186.951 235.445 186.951 237.175V351.152C186.951 352.867 188.387 354.291 190.179 354.291H233.763C235.528 354.291 236.964 352.867 236.964 351.152V237.175C236.964 235.445 235.529 234.032 233.763 234.032H190.179ZM363.058 158.605C361.276 158.606 359.83 160.023 359.83 161.766V351.152C359.83 352.867 361.277 354.291 363.058 354.291H404.554C406.313 354.291 407.777 352.867 407.777 351.152V161.766C407.777 160.022 406.313 158.605 404.554 158.605H363.058Z" fill="currentColor"/>
</svg>
