<svg width="217" height="65" viewBox="0 0 217 65" fill="none" xmlns="http://www.w3.org/2000/svg">
<rect width="217" height="65" fill="#FFA600"/>
<path d="M33.82 18.08C33.0467 19.28 32.0733 20.56 30.9 21.92C29.7533 23.28 28.4733 24.5867 27.06 25.84C25.6467 27.0933 24.1933 28.2 22.7 29.16C22.4067 28.5467 22.0067 27.8533 21.5 27.08C21.02 26.28 20.5533 25.6267 20.1 25.12C21.6467 24.2133 23.14 23.0933 24.58 21.76C26.0467 20.4267 27.3667 19.04 28.54 17.6C29.74 16.16 30.7 14.8 31.42 13.52H35.9C36.94 14.9867 38.1 16.44 39.38 17.88C40.6867 19.2933 42.06 20.6 43.5 21.8C44.9667 23 46.4333 23.9867 47.9 24.76C47.3933 25.3467 46.8867 26.04 46.38 26.84C45.9 27.6133 45.4733 28.36 45.1 29.08C43.7133 28.1733 42.3133 27.0933 40.9 25.84C39.4867 24.5867 38.1533 23.28 36.9 21.92C35.6733 20.56 34.6467 19.28 33.82 18.08ZM26.14 25.16H41.82V29.28H26.14V25.16ZM22.42 32.92H45.78V37.12H22.42V32.92ZM24.94 38.28L29.3 39.4C28.7133 41.0533 27.98 42.7067 27.1 44.36C26.22 46.0133 25.34 47.3867 24.46 48.48C24.14 48.24 23.74 47.9733 23.26 47.68C22.8067 47.3867 22.3267 47.1067 21.82 46.84C21.34 46.5733 20.9267 46.36 20.58 46.2C21.46 45.2133 22.2867 44.0133 23.06 42.6C23.86 41.16 24.4867 39.72 24.94 38.28ZM38.34 40L42.14 38.16C42.8333 38.96 43.5 39.8267 44.14 40.76C44.8067 41.6933 45.4067 42.6133 45.94 43.52C46.4733 44.4267 46.9 45.2533 47.22 46L43.18 48.12C42.9133 47.3733 42.5133 46.5333 41.98 45.6C41.4733 44.64 40.9 43.68 40.26 42.72C39.6467 41.7333 39.0067 40.8267 38.34 40ZM31.66 26.12H36.38V45.64C36.38 46.7067 36.26 47.56 36.02 48.2C35.78 48.8667 35.3133 49.3867 34.62 49.76C33.9267 50.1067 33.1 50.3333 32.14 50.44C31.2067 50.5467 30.0867 50.6 28.78 50.6C28.7 49.96 28.5 49.2133 28.18 48.36C27.8867 47.5067 27.58 46.7733 27.26 46.16C28.06 46.1867 28.8067 46.2133 29.5 46.24C30.22 46.24 30.7133 46.2267 30.98 46.2C31.2467 46.2 31.42 46.16 31.5 46.08C31.6067 45.9733 31.66 45.8 31.66 45.56V26.12ZM18.1 21.64L22.3 23.2C21.4467 24.8 20.4333 26.4133 19.26 28.04C18.1133 29.6667 16.8867 31.2 15.58 32.64C14.2733 34.08 12.9667 35.3333 11.66 36.4C11.5267 36.0533 11.3 35.6 10.98 35.04C10.6867 34.48 10.3667 33.92 10.02 33.36C9.7 32.7733 9.40667 32.3067 9.14 31.96C10.26 31.1067 11.3667 30.1333 12.46 29.04C13.58 27.9467 14.62 26.7733 15.58 25.52C16.5667 24.24 17.4067 22.9467 18.1 21.64ZM17.38 13L21.62 14.72C20.7933 15.8667 19.8333 17.04 18.74 18.24C17.6733 19.44 16.5667 20.5867 15.42 21.68C14.2733 22.7733 13.14 23.72 12.02 24.52C11.8067 24.2 11.54 23.8267 11.22 23.4C10.9267 22.9733 10.62 22.5467 10.3 22.12C10.0067 21.6667 9.74 21.3067 9.5 21.04C10.46 20.3467 11.4333 19.5467 12.42 18.64C13.4333 17.7333 14.3667 16.7867 15.22 15.8C16.1 14.8133 16.82 13.88 17.38 13ZM14.78 30.28L18.86 26.2L19.26 26.36V50.64H14.78V30.28ZM57.54 13.68H62.3V26.44C62.3 28.52 62.2067 30.64 62.02 32.8C61.8333 34.96 61.4467 37.0933 60.86 39.2C60.3 41.3067 59.4467 43.32 58.3 45.24C57.1533 47.16 55.62 48.9333 53.7 50.56C53.46 50.16 53.1267 49.72 52.7 49.24C52.3 48.76 51.8733 48.2933 51.42 47.84C50.9933 47.4133 50.5933 47.0667 50.22 46.8C51.8733 45.4133 53.18 43.9067 54.14 42.28C55.1267 40.6533 55.86 38.9467 56.34 37.16C56.82 35.3733 57.14 33.5733 57.3 31.76C57.46 29.92 57.54 28.1333 57.54 26.4V13.68ZM68.7 14.56H73.42V47.92H68.7V14.56ZM80.22 13.56H85.02V50.16H80.22V13.56ZM52.34 22.8L56.46 23.88C56.2733 25.2133 56.0467 26.6 55.78 28.04C55.5133 29.48 55.18 30.8667 54.78 32.2C54.4067 33.5067 53.9533 34.6533 53.42 35.64L49.26 33.96C49.7933 32.9733 50.26 31.8667 50.66 30.64C51.06 29.4133 51.3933 28.1333 51.66 26.8C51.9533 25.44 52.18 24.1067 52.34 22.8ZM61.66 25.16L65.42 23.52C65.9 24.64 66.3533 25.8267 66.78 27.08C67.2067 28.3067 67.58 29.5067 67.9 30.68C68.2467 31.8267 68.4867 32.8533 68.62 33.76L64.54 35.64C64.46 34.7333 64.2733 33.68 63.98 32.48C63.6867 31.28 63.34 30.04 62.94 28.76C62.54 27.48 62.1133 26.28 61.66 25.16ZM72.74 25.08L76.34 23.24C76.9267 24.28 77.5 25.4 78.06 26.6C78.62 27.8 79.1133 28.9733 79.54 30.12C79.9933 31.24 80.3133 32.24 80.5 33.12L76.62 35.28C76.46 34.3733 76.1667 33.3333 75.74 32.16C75.34 30.9867 74.8867 29.7867 74.38 28.56C73.8733 27.3333 73.3267 26.1733 72.74 25.08ZM90.3 26.2H126.74V30.64H90.3V26.2ZM93.94 17.84H116.58V22.24H93.94V17.84ZM103.02 13H108.02V28.64H103.02V13ZM118.42 33.28L122.38 36.76C120.567 37.48 118.593 38.1733 116.46 38.84C114.327 39.48 112.153 40.08 109.94 40.64C107.753 41.1733 105.62 41.6533 103.54 42.08C103.433 41.5733 103.22 40.96 102.9 40.24C102.607 39.52 102.327 38.92 102.06 38.44C104.033 38.0133 106.02 37.52 108.02 36.96C110.047 36.4 111.953 35.8 113.74 35.16C115.553 34.52 117.113 33.8933 118.42 33.28ZM120.86 14.56L125.34 16.76C122.727 20.6 119.687 24.1333 116.22 27.36C112.78 30.56 109.047 33.4133 105.02 35.92C101.02 38.4 96.86 40.5333 92.54 42.32C92.3267 41.9467 92.0067 41.5067 91.58 41C91.18 40.4933 90.7667 39.9867 90.34 39.48C89.94 38.9733 89.5667 38.5467 89.22 38.2C93.5667 36.6533 97.7 34.72 101.62 32.4C105.567 30.08 109.18 27.4267 112.46 24.44C115.74 21.4267 118.54 18.1333 120.86 14.56ZM100.5 33.32H105.5V43.88C105.5 44.4133 105.58 44.8133 105.74 45.08C105.9 45.32 106.22 45.48 106.7 45.56C107.207 45.64 107.94 45.68 108.9 45.68C109.193 45.68 109.607 45.68 110.14 45.68C110.7 45.68 111.34 45.68 112.06 45.68C112.78 45.68 113.5 45.68 114.22 45.68C114.94 45.68 115.593 45.68 116.18 45.68C116.793 45.68 117.273 45.68 117.62 45.68C118.447 45.68 119.073 45.56 119.5 45.32C119.927 45.08 120.233 44.6133 120.42 43.92C120.607 43.2 120.74 42.1333 120.82 40.72C121.22 40.9867 121.687 41.24 122.22 41.48C122.753 41.6933 123.3 41.8933 123.86 42.08C124.42 42.2667 124.913 42.4 125.34 42.48C125.127 44.4533 124.767 45.9867 124.26 47.08C123.78 48.1733 123.047 48.9333 122.06 49.36C121.073 49.7867 119.7 50 117.94 50C117.673 50 117.22 50 116.58 50C115.967 50 115.247 50 114.42 50C113.62 50 112.82 50 112.02 50C111.247 50 110.54 50 109.9 50C109.26 50 108.807 50 108.54 50C106.46 50 104.833 49.8133 103.66 49.44C102.487 49.0933 101.66 48.48 101.18 47.6C100.727 46.72 100.5 45.4933 100.5 43.92V33.32ZM144.14 28.56H167.1V33.12H144.14V28.56ZM145.42 19.04H165.86V23.6H145.42V19.04ZM152.74 13.36H157.58V50.48H152.74V13.36ZM152.3 31.36L156.06 32.52C155.26 34.68 154.273 36.76 153.1 38.76C151.927 40.7333 150.607 42.52 149.14 44.12C147.673 45.6933 146.087 47.0267 144.38 48.12C144.14 47.7467 143.833 47.3333 143.46 46.88C143.087 46.4 142.687 45.9333 142.26 45.48C141.86 45.0267 141.487 44.64 141.14 44.32C142.74 43.4667 144.26 42.36 145.7 41C147.14 39.64 148.42 38.1333 149.54 36.48C150.687 34.8267 151.607 33.12 152.3 31.36ZM157.98 31.24C158.647 32.8933 159.473 34.5467 160.46 36.2C161.473 37.8267 162.593 39.3333 163.82 40.72C165.047 42.1067 166.313 43.28 167.62 44.24C167.273 44.5333 166.873 44.92 166.42 45.4C165.967 45.8533 165.527 46.3333 165.1 46.84C164.7 47.32 164.353 47.7733 164.06 48.2C162.727 47 161.46 45.56 160.26 43.88C159.06 42.2 157.967 40.3733 156.98 38.4C155.993 36.4267 155.14 34.4133 154.42 32.36L157.98 31.24ZM133.46 16.48H143.06V40.52H133.46V35.84H138.74V21.12H133.46V16.48ZM130.98 16.48H135.38V43.72H130.98V16.48ZM170.7 15.44H206.42V19.64H170.7V15.44ZM179.46 13H184.34V22.04H179.46V13ZM192.78 13H197.66V21.52H192.78V13ZM170.7 36.04H206.42V40.24H170.7V36.04ZM185.94 33.32H190.94V50.6H185.94V33.32ZM184.62 37.96L188.54 39.68C187.313 41.1733 185.847 42.56 184.14 43.84C182.433 45.12 180.607 46.2533 178.66 47.24C176.713 48.2533 174.74 49.08 172.74 49.72C172.5 49.2933 172.193 48.8133 171.82 48.28C171.447 47.7733 171.047 47.28 170.62 46.8C170.22 46.2933 169.833 45.8667 169.46 45.52C170.927 45.1733 172.38 44.7467 173.82 44.24C175.287 43.7067 176.687 43.1067 178.02 42.44C179.38 41.7733 180.62 41.0667 181.74 40.32C182.86 39.5467 183.82 38.76 184.62 37.96ZM192.26 38.28C193.3 39.3733 194.62 40.3867 196.22 41.32C197.847 42.2533 199.607 43.08 201.5 43.8C203.42 44.4933 205.353 45.04 207.3 45.44C206.927 45.7867 206.54 46.2133 206.14 46.72C205.74 47.2 205.353 47.6933 204.98 48.2C204.633 48.7333 204.327 49.2133 204.06 49.64C202.087 49.08 200.14 48.3067 198.22 47.32C196.3 46.36 194.527 45.24 192.9 43.96C191.273 42.68 189.86 41.2933 188.66 39.8L192.26 38.28ZM200.74 20.88L204.58 24.6C202.367 25.1067 199.967 25.5467 197.38 25.92C194.793 26.2667 192.1 26.5467 189.3 26.76C186.5 26.9733 183.7 27.1333 180.9 27.24C178.1 27.3467 175.38 27.4 172.74 27.4C172.687 26.84 172.553 26.1467 172.34 25.32C172.127 24.4933 171.9 23.8267 171.66 23.32C174.247 23.2667 176.887 23.1867 179.58 23.08C182.3 22.9733 184.953 22.8133 187.54 22.6C190.127 22.3867 192.54 22.1467 194.78 21.88C197.047 21.5867 199.033 21.2533 200.74 20.88ZM173.42 29.28L177.42 27.68C178.14 28.5333 178.82 29.4933 179.46 30.56C180.127 31.6267 180.593 32.5733 180.86 33.4L176.62 35.12C176.38 34.32 175.953 33.3733 175.34 32.28C174.727 31.1867 174.087 30.1867 173.42 29.28ZM184.58 28.4L188.74 27.04C189.247 27.8133 189.727 28.68 190.18 29.64C190.633 30.5733 190.927 31.4 191.06 32.12L186.62 33.6C186.513 32.9067 186.26 32.0667 185.86 31.08C185.487 30.0933 185.06 29.2 184.58 28.4ZM199.66 26.08L204.62 27.8C203.767 29.1333 202.887 30.4533 201.98 31.76C201.073 33.0667 200.26 34.16 199.54 35.04L195.74 33.48C196.193 32.8133 196.66 32.0533 197.14 31.2C197.647 30.32 198.113 29.44 198.54 28.56C198.993 27.6533 199.367 26.8267 199.66 26.08Z" fill="#FF0000"/>
</svg>
